<?xml version="1.0" encoding="UTF-8"?>
<svg width="100%" height="100%" viewBox="5 6 28 28" version="1.1" xmlns="http://www.w3.org/2000/svg">
  <title>71A5F414-8F42-4BAB-9434-B2A3A20B1D98</title>
  <defs>
    <filter id="filter-1">
      <feColorMatrix in="SourceGraphic" type="matrix" values="0 0 0 0 0.219608 0 0 0 0 0.650980 0 0 0 0 0.878431 0 0 0 1.000000 0"></feColorMatrix>
    </filter>
  </defs>
  <g id="Admin-Portal" stroke="none" stroke-width="1" fill="none" fill-rule="evenodd">
    <g id="Property-Details" >
      <g id="Group">
        <g id="Group-5">
          <g filter="url(#filter-1)" id="streamline-icon-common-file-edit@20x20" stroke-linecap="round" stroke-linejoin="round">
            <g transform="translate(10.000000, 10.000000)">
              <path d="M18.8583333,12.3916667 L12.5,18.75 L9.375,19.375 L10,16.25 L16.3583333,9.89166667 C16.6887893,9.56069003 17.1372964,9.37470545 17.605,9.37470545 C18.0727036,9.37470545 18.5212107,9.56069003 18.8516667,9.89166667 L18.8583333,9.89833333 C19.18931,10.2287893 19.3752945,10.6772964 19.3752945,11.145 C19.3752945,11.6127036 19.18931,12.0612107 18.8583333,12.3916667 L18.8583333,12.3916667 Z" id="Path" stroke="#000000" stroke-width="1.25"></path>
              <path d="M6.875,16.875 L1.875,16.875 C1.18464406,16.875 0.625,16.3153559 0.625,15.625 L0.625,1.875 C0.625,1.18464406 1.18464406,0.625 1.875,0.625 L10.7325,0.625 C11.0637893,0.625 11.3815013,0.75665146 11.6158333,0.990833333 L14.0091667,3.38416667 C14.2433485,3.61849866 14.375,3.93621066 14.375,4.2675 L14.375,6.875" id="Path" stroke="#000000" stroke-width="1.25"></path>
            </g>
          </g>
        </g>
      </g>
    </g>
  </g>
</svg>
