<?xml version="1.0" encoding="UTF-8"?>
<svg width="37px" height="41px" viewBox="0 0 37 41" version="1.1" xmlns="http://www.w3.org/2000/svg">
    <title>B0C2EE23-1194-43B4-8799-CEAC983FE835</title>
    <defs>
        <filter id="filter-1">
            <feColorMatrix in="SourceGraphic" type="matrix" values="0 0 0 0 0.219608 0 0 0 0 0.650980 0 0 0 0 0.878431 0 0 0 1.000000 0"></feColorMatrix>
        </filter>
    </defs>
    <g id="Admin-Portal" stroke="none" stroke-width="1" fill="none" fill-rule="evenodd" stroke-linecap="round" stroke-linejoin="round">
        <g id="streamline-icon-common-file-stack@20x20-copy" transform="translate(-1002.000000, -571.000000)" filter="url(#filter-1)">
            <g transform="translate(1003.916667, 572.600000)">
                <path d="M25.75,37.75 L3.25,37.75 C1.86928813,37.75 0.75,36.6307119 0.75,35.25 L0.75,7.75" id="Path" stroke="#000000" stroke-width="2.5"></path>
                <path d="M30.75,32.75 L8.25,32.75 C6.86928813,32.75 5.75,31.6307119 5.75,30.25 L5.75,2.75" id="Path" stroke="#000000" stroke-width="2.5"></path>
                <path d="M33.25,25.25 C33.25,26.6307119 32.1307119,27.75 30.75,27.75 L13.25,27.75 C11.8692881,27.75 10.75,26.6307119 10.75,25.25 L10.75,2.75 C10.75,1.36928813 11.8692881,0.25 13.25,0.25 L25.965,0.25 C26.6275787,0.25 27.2630027,0.51330292 27.7316667,0.981666667 L32.5183333,5.76833333 C32.9866971,6.23699732 33.25,6.87242132 33.25,7.535 L33.25,25.25 Z" id="Path" stroke="#000000" stroke-width="2.5"></path>
            </g>
        </g>
    </g>
</svg>
