<?xml version="1.0" encoding="UTF-8"?>
<svg width="41px" height="39px" viewBox="0 0 41 39" version="1.1" xmlns="http://www.w3.org/2000/svg">
    <title>6516E55B-0C05-4E60-9D5E-28F842D389BE</title>
    <defs>
        <filter id="filter-1">
            <feColorMatrix in="SourceGraphic" type="matrix" values="0 0 0 0 0.219608 0 0 0 0 0.650980 0 0 0 0 0.878431 0 0 0 1.000000 0"></feColorMatrix>
        </filter>
    </defs>
    <g id="Admin-Portal" stroke="none" stroke-width="1" fill="none" fill-rule="evenodd" stroke-linecap="round" stroke-linejoin="round">
        <g id="streamline-icon-seo-search@20x20-copy" transform="translate(-442.000000, -714.000000)" filter="url(#filter-1)">
            <g transform="translate(443.166667, 715.520000)">
                <path d="M25.25,5.70833333 C25.25,8.58481641 27.5818503,10.9166667 30.4583333,10.9166667 C33.3348164,10.9166667 35.6666667,8.58481641 35.6666667,5.70833333 C35.6666667,2.83185026 33.3348164,0.5 30.4583333,0.5 C27.5818503,0.5 25.25,2.83185026 25.25,5.70833333 Z" id="Path" stroke="#000000" stroke-width="2.5"></path>
                <line x1="34.1416667" y1="9.39" x2="37.75" y2="13" id="Path" stroke="#000000" stroke-width="2.5"></line>
                <path d="M20.25,10.5 L2.75,10.5 C1.36928813,10.5 0.25,9.38071187 0.25,8 L0.25,5.5 C0.25,4.11928813 1.36928813,3 2.75,3 L20.25,3" id="Path" stroke="#000000" stroke-width="2.5"></path>
                <path d="M3.375,16.75 C3.72017797,16.75 4,17.029822 4,17.375 C4,17.720178 3.72017797,18 3.375,18 C3.02982203,18 2.75,17.720178 2.75,17.375 C2.75,17.029822 3.02982203,16.75 3.375,16.75" id="Path" stroke="#000000" stroke-width="2.5"></path>
                <line x1="9" y1="18" x2="29" y2="18" id="Path" stroke="#000000" stroke-width="2.5"></line>
                <path d="M3.375,25.5 C3.72017797,25.5 4,25.779822 4,26.125 C4,26.470178 3.72017797,26.75 3.375,26.75 C3.02982203,26.75 2.75,26.470178 2.75,26.125 C2.75,25.779822 3.02982203,25.5 3.375,25.5" id="Path" stroke="#000000" stroke-width="2.5"></path>
                <line x1="9" y1="26.75" x2="29" y2="26.75" id="Path" stroke="#000000" stroke-width="2.5"></line>
                <path d="M3.375,34.25 C3.72017797,34.25 4,34.529822 4,34.875 C4,35.220178 3.72017797,35.5 3.375,35.5 C3.02982203,35.5 2.75,35.220178 2.75,34.875 C2.75,34.529822 3.02982203,34.25 3.375,34.25" id="Path" stroke="#000000" stroke-width="2.5"></path>
                <line x1="9" y1="35.5" x2="29" y2="35.5" id="Path" stroke="#000000" stroke-width="2.5"></line>
            </g>
        </g>
    </g>
</svg>
