<?xml version="1.0" encoding="UTF-8"?>
<svg width="21px" height="21px" viewBox="0 0 21 21" version="1.1" xmlns="http://www.w3.org/2000/svg">
    <title>4585EDCC-4F42-46C8-9F90-4049974DFBC2</title>
    <defs>
        <filter id="filter-1">
            <feColorMatrix in="SourceGraphic" type="matrix" values="0 0 0 0 1.000000 0 0 0 0 1.000000 0 0 0 0 1.000000 0 0 0 1.000000 0"></feColorMatrix>
        </filter>
    </defs>
    <g id="Admin-Portal" stroke="none" stroke-width="1" fill="none" fill-rule="evenodd" stroke-linecap="round" stroke-linejoin="round">
        <g id="Property-Edit" transform="translate(-685.000000, -303.000000)">
            <g id="streamline-icon-image-file-upload@20x20" transform="translate(675.500000, 293.420000)" filter="url(#filter-1)">
                <g transform="translate(10.000000, 10.000000)">
                    <path d="M9.375,14.375 C9.375,17.1364237 11.6135763,19.375 14.375,19.375 C17.1364237,19.375 19.375,17.1364237 19.375,14.375 C19.375,11.6135763 17.1364237,9.375 14.375,9.375 C11.6135763,9.375 9.375,11.6135763 9.375,14.375 Z" id="Path" stroke="#000000" stroke-width="1.25"></path>
                    <line x1="14.375" y1="16.875" x2="14.375" y2="11.875" id="Path" stroke="#000000" stroke-width="1.25"></line>
                    <line x1="14.375" y1="11.875" x2="12.5" y2="13.75" id="Path" stroke="#000000" stroke-width="1.25"></line>
                    <line x1="14.375" y1="11.875" x2="16.25" y2="13.75" id="Path" stroke="#000000" stroke-width="1.25"></line>
                    <path d="M6.875,16.875 L1.875,16.875 C1.18464406,16.875 0.625,16.3153559 0.625,15.625 L0.625,1.875 C0.625,1.18464406 1.18464406,0.625 1.875,0.625 L10.7325,0.625 C11.0637893,0.625 11.3815013,0.75665146 11.6158333,0.990833333 L14.0091667,3.38416667 C14.2433485,3.61849866 14.375,3.93621066 14.375,4.2675 L14.375,6.875" id="Path" stroke="#000000" stroke-width="1.25"></path>
                    <path d="M4.375,4.6875 C4.54758898,4.6875 4.6875,4.82741102 4.6875,5 C4.6875,5.17258898 4.54758898,5.3125 4.375,5.3125 C4.20241102,5.3125 4.0625,5.17258898 4.0625,5 C4.0625,4.82741102 4.20241102,4.6875 4.375,4.6875" id="Path" stroke="#000000" stroke-width="1.25"></path>
                    <path d="M10.0708333,7.98833333 L9.375,6.875 C9.26069149,6.70303289 9.06873055,6.59872967 8.86225133,6.59635466 C8.6557721,6.59405971 8.46150152,6.6939952 8.34333333,6.86333333 L6.67666667,9.23916667 L5.65,8.41666667 C5.51326009,8.30706014 5.3367849,8.25989735 5.16359626,8.28667583 C4.99040762,8.31345431 4.83641766,8.41171373 4.73916667,8.5575 L3.125,11.875 L6.875,11.875" id="Path" stroke="#000000" stroke-width="1.25"></path>
                </g>
            </g>
        </g>
    </g>
</svg>
