<?xml version="1.0" encoding="UTF-8"?>
<svg width="21px" height="21px" viewBox="0 0 21 21" version="1.1" xmlns="http://www.w3.org/2000/svg">
    <title>10153655-2BD9-427A-BA47-9C00AEB7162A</title>
    <defs>
        <filter id="filter-1">
            <feColorMatrix in="SourceGraphic" type="matrix" values="0 0 0 0 0.219608 0 0 0 0 0.650980 0 0 0 0 0.878431 0 0 0 1.000000 0"></feColorMatrix>
        </filter>
    </defs>
    <g id="Admin-Portal" stroke="none" stroke-width="1" fill="none" fill-rule="evenodd" stroke-linecap="round" stroke-linejoin="round">
        <g id="streamline-icon-multiple-users-1@20x20" transform="translate(-31.000000, -579.000000)" filter="url(#filter-1)">
            <g transform="translate(31.000000, 579.520000)">
                <path d="M1.875,5 C1.875,6.03553391 2.71446609,6.875 3.75,6.875 C4.78553391,6.875 5.625,6.03553391 5.625,5 C5.625,3.96446609 4.78553391,3.125 3.75,3.125 C2.71446609,3.125 1.875,3.96446609 1.875,5 Z" id="Path" stroke="#000000" stroke-width="1.25"></path>
                <path d="M3.75,8.125 C2.02411016,8.125 0.625,9.52411016 0.625,11.25 L0.625,13.125 L1.875,13.125 L2.5,18.125 L5,18.125" id="Path" stroke="#000000" stroke-width="1.25"></path>
                <path d="M14.375,5 C14.375,6.03553391 15.2144661,6.875 16.25,6.875 C17.2855339,6.875 18.125,6.03553391 18.125,5 C18.125,3.96446609 17.2855339,3.125 16.25,3.125 C15.2144661,3.125 14.375,3.96446609 14.375,5 Z" id="Path" stroke="#000000" stroke-width="1.25"></path>
                <path d="M16.25,8.125 C17.9758898,8.125 19.375,9.52411016 19.375,11.25 L19.375,13.125 L18.125,13.125 L17.5,18.125 L15,18.125" id="Path" stroke="#000000" stroke-width="1.25"></path>
                <path d="M7.5,3.125 C7.5,4.50571187 8.61928813,5.625 10,5.625 C11.3807119,5.625 12.5,4.50571187 12.5,3.125 C12.5,1.74428813 11.3807119,0.625 10,0.625 C8.61928813,0.625 7.5,1.74428813 7.5,3.125 Z" id="Path" stroke="#000000" stroke-width="1.25"></path>
                <path d="M14.375,11.25 C14.375,8.83375422 12.4162458,6.875 10,6.875 C7.58375422,6.875 5.625,8.83375422 5.625,11.25 L5.625,13.125 L7.5,13.125 L8.125,19.375 L11.875,19.375 L12.5,13.125 L14.375,13.125 L14.375,11.25 Z" id="Path" stroke="#000000" stroke-width="1.25"></path>
            </g>
        </g>
    </g>
</svg>
