<?xml version="1.0" encoding="UTF-8"?>
<svg width="20px" height="21px" viewBox="0 0 20 21" version="1.1" xmlns="http://www.w3.org/2000/svg">
    <title>507C86C2-2302-47FD-A673-91DA70EFF8BE</title>
    <defs>
        <filter id="filter-1">
            <feColorMatrix in="SourceGraphic" type="matrix" values="0 0 0 0 0.219608 0 0 0 0 0.650980 0 0 0 0 0.878431 0 0 0 1.000000 0"></feColorMatrix>
        </filter>
    </defs>
    <g id="Admin-Portal" stroke="none" stroke-width="1" fill="none" fill-rule="evenodd" stroke-linecap="round" stroke-linejoin="round">
        <g id="streamline-icon-task-checklist-check@20x20" transform="translate(-31.000000, -318.000000)" filter="url(#filter-1)">
            <g transform="translate(31.000000, 318.420000)">
                <path d="M16.8766667,7.5 L16.8766667,4.37416667 C16.8766667,3.68381073 16.3170226,3.12416667 15.6266667,3.12416667 L12.2933333,3.12416667" id="Path" stroke="#000000" stroke-width="1.25"></path>
                <path d="M5.21,3.12416667 L1.87666667,3.12416667 C1.18631073,3.12416667 0.626666667,3.68381073 0.626666667,4.37416667 L0.626666667,18.1241667 C0.626666667,18.8145226 1.18631073,19.3741667 1.87666667,19.3741667 L8.75,19.3741667" id="Path" stroke="#000000" stroke-width="1.25"></path>
                <path d="M12.0191667,3.94666667 C11.9339762,4.20162727 11.6954828,4.3737048 11.4266667,4.37416667 L6.0775,4.37416667 C5.80837709,4.37406275 5.5694546,4.20191775 5.48416667,3.94666667 L4.65083333,1.44666667 C4.58693829,1.25600878 4.61880875,1.04624513 4.73644845,0.883168742 C4.85408816,0.720092353 5.04308765,0.623678122 5.24416667,0.624164819 L12.26,0.624164819 C12.4609321,0.623946905 12.6496829,0.720472558 12.7671277,0.883507782 C12.8845726,1.04654301 12.9163478,1.25614833 12.8525,1.44666667 L12.0191667,3.94666667 Z" id="Path" stroke="#000000" stroke-width="1.25"></path>
                <path d="M6.87666667,16.8741667 L3.75,16.8741667 C3.40482203,16.8741667 3.125,16.5943446 3.125,16.2491667 L3.125,5.62416667" id="Path" stroke="#000000" stroke-width="1.25"></path>
                <line x1="14.3766667" y1="5.62416667" x2="14.3766667" y2="6.87416667" id="Path" stroke="#000000" stroke-width="1.25"></line>
                <path d="M9.375,14.3741667 C9.375,17.1355904 11.6135763,19.3741667 14.375,19.3741667 C17.1364237,19.3741667 19.375,17.1355904 19.375,14.3741667 C19.375,11.6127429 17.1364237,9.37416667 14.375,9.37416667 C11.6135763,9.37416667 9.375,11.6127429 9.375,14.3741667 Z" id="Path" stroke="#000000" stroke-width="1.25"></path>
                <path d="M16.6033333,12.9166667 L14.1825,16.145 C14.0735855,16.2898533 13.9072259,16.3803799 13.726446,16.3931671 C13.5456662,16.4059544 13.3682202,16.3397466 13.24,16.2116667 L11.99,14.9616667" id="Path" stroke="#000000" stroke-width="1.25"></path>
                <line x1="5.62666667" y1="8.12416667" x2="9.37666667" y2="8.12416667" id="Path" stroke="#000000" stroke-width="1.25"></line>
                <line x1="5.62666667" y1="11.8741667" x2="6.87666667" y2="11.8741667" id="Path" stroke="#000000" stroke-width="1.25"></line>
            </g>
        </g>
    </g>
</svg>
