<?xml version="1.0" encoding="UTF-8"?>
<svg width="16px" height="17px" viewBox="0 0 16 17" version="1.1" xmlns="http://www.w3.org/2000/svg">
    <title>2C7E5167-CF31-4990-8A0E-DCD1283B5420</title>
    <defs>
        <filter id="filter-1">
            <feColorMatrix in="SourceGraphic" type="matrix" values="0 0 0 0 0.972549 0 0 0 0 0.976471 0 0 0 0 0.980392 0 0 0 1.000000 0"></feColorMatrix>
        </filter>
    </defs>
    <g id="Admin-Portal" stroke="none" stroke-width="1" fill="none" fill-rule="evenodd" stroke-linecap="round" stroke-linejoin="round">
        <g id="USER-DOCUMENTS-UPLOADING" transform="translate(-1307.000000, -41.000000)">
            <g id="streamline-icon-logout-2@20x20" transform="translate(0.000000, -4.938260)" filter="url(#filter-1)">
                <g transform="translate(1307.212891, 46.188260)">
                    <path d="M12.655625,11.72125 L12.655625,12.65875 C12.655625,13.176517 12.235892,13.59625 11.718125,13.59625 L8.905625,13.59625" id="Path" stroke="#000000" stroke-width="0.9375"></path>
                    <path d="M8.905625,2.34625 L11.718125,2.34625 C12.235892,2.34625 12.655625,2.76598305 12.655625,3.28375 L12.655625,4.22125" id="Path" stroke="#000000" stroke-width="0.9375"></path>
                    <path d="M6.495625,14.52875 L0.870625,13.725 C0.639788061,13.6920443 0.468271613,13.4944275 0.46812484,13.26125 L0.46812484,2.328125 C0.467943107,2.10691192 0.622437956,1.91568221 0.83875,1.869375 L6.46375,0.48125 C6.60222255,0.451606254 6.74667425,0.486150878 6.85675404,0.575234194 C6.96683383,0.66431751 7.03074146,0.798390027 7.03062516,0.94 L7.03062516,14.065 C7.0305396,14.2008279 6.97154102,14.3299403 6.86890529,14.4189072 C6.76626956,14.5078742 6.63008944,14.547947 6.495625,14.52875 Z" id="Path" stroke="#000000" stroke-width="0.9375"></path>
                    <polyline id="Path" stroke="#000000" stroke-width="0.9375" points="12.655625 6.095625 14.530625 7.970625 9.374375 7.970625"></polyline>
                    <line x1="12.65625" y1="9.845625" x2="14.53125" y2="7.970625" id="Path" stroke="#000000" stroke-width="0.9375"></line>
                    <path d="M4.92125,7.268125 C4.82622782,7.26813041 4.74061228,7.32550833 4.70448685,7.41339557 C4.66836143,7.50128282 4.68887605,7.60228479 4.75642617,7.66911438 C4.8239763,7.73594397 4.92519245,7.75537431 5.01268725,7.7183085 C5.10018205,7.68124269 5.15663857,7.59501677 5.155625,7.5 C5.15579156,7.43778897 5.13115204,7.37807795 5.08716205,7.33408795 C5.04317205,7.29009796 4.98346103,7.26545844 4.92125,7.265625 L4.92125,7.265625" id="Path" stroke="#000000" stroke-width="0.9375"></path>
                </g>
            </g>
        </g>
    </g>
</svg>
