<?xml version="1.0" encoding="UTF-8"?>
<svg width="20px" height="21px" viewBox="0 0 20 21" version="1.1" xmlns="http://www.w3.org/2000/svg">
    <title>A7FB4BCC-558E-4547-B10A-A7F33A5C392B</title>
    <defs>
        <filter id="filter-1">
            <feColorMatrix in="SourceGraphic" type="matrix" values="0 0 0 0 0.219608 0 0 0 0 0.650980 0 0 0 0 0.878431 0 0 0 1.000000 0"></feColorMatrix>
        </filter>
    </defs>
    <g id="Admin-Portal" stroke="none" stroke-width="1" fill="none" fill-rule="evenodd" stroke-linecap="round" stroke-linejoin="round">
        <g id="streamline-icon-single-neutral-actions-view@20x20" transform="translate(-31.000000, -409.000000)" filter="url(#filter-1)">
            <g transform="translate(31.000000, 409.680000)">
                <path d="M2.5,3.125 C2.5,4.50571187 3.61928813,5.625 5,5.625 C6.38071187,5.625 7.5,4.50571187 7.5,3.125 C7.5,1.74428813 6.38071187,0.625 5,0.625 C3.61928813,0.625 2.5,1.74428813 2.5,3.125 Z" id="Path" stroke="#000000" stroke-width="1.25"></path>
                <path d="M8.06166667,8.125 C6.80350731,6.89241489 4.92889654,6.53449432 3.30512025,7.21682972 C1.68134396,7.89916511 0.625077114,9.48868486 0.625,11.25 L0.625,13.125 L2.5,13.125 L3.125,19.375 L6.875,19.375 L7.1125,17" id="Path" stroke="#000000" stroke-width="1.25"></path>
                <path d="M8.75,13.125 C8.75,15.5412458 10.7087542,17.5 13.125,17.5 C15.5412458,17.5 17.5,15.5412458 17.5,13.125 C17.5,10.7087542 15.5412458,8.75 13.125,8.75 C10.7087542,8.75 8.75,10.7087542 8.75,13.125 Z" id="Path" stroke="#000000" stroke-width="1.25"></path>
                <line x1="19.375" y1="19.375" x2="16.2183333" y2="16.2183333" id="Path" stroke="#000000" stroke-width="1.25"></line>
            </g>
        </g>
    </g>
</svg>
