<?xml version="1.0" encoding="UTF-8"?>
<svg width="41px" height="41px" viewBox="0 0 41 41" version="1.1" xmlns="http://www.w3.org/2000/svg">
    <title>3626A0D9-A3D0-48FA-98EC-4BD982627F03</title>
    <defs>
        <filter id="filter-1">
            <feColorMatrix in="SourceGraphic" type="matrix" values="0 0 0 0 0.219608 0 0 0 0 0.650980 0 0 0 0 0.878431 0 0 0 1.000000 0"></feColorMatrix>
        </filter>
    </defs>
    <g id="Admin-Portal" stroke="none" stroke-width="1" fill="none" fill-rule="evenodd" stroke-linecap="round" stroke-linejoin="round">
        <g id="streamline-icon-multiple-users-1@20x20-copy" transform="translate(-1188.000000, -571.000000)" filter="url(#filter-1)">
            <g transform="translate(1189.500000, 572.600000)">
                <path d="M2.75,9 C2.75,11.0710678 4.42893219,12.75 6.5,12.75 C8.57106781,12.75 10.25,11.0710678 10.25,9 C10.25,6.92893219 8.57106781,5.25 6.5,5.25 C4.42893219,5.25 2.75,6.92893219 2.75,9 Z" id="Path" stroke="#000000" stroke-width="2.5"></path>
                <path d="M6.5,15.25 C3.04822031,15.25 0.25,18.0482203 0.25,21.5 L0.25,25.25 L2.75,25.25 L4,35.25 L9,35.25" id="Path" stroke="#000000" stroke-width="2.5"></path>
                <path d="M27.75,9 C27.75,11.0710678 29.4289322,12.75 31.5,12.75 C33.5710678,12.75 35.25,11.0710678 35.25,9 C35.25,6.92893219 33.5710678,5.25 31.5,5.25 C29.4289322,5.25 27.75,6.92893219 27.75,9 Z" id="Path" stroke="#000000" stroke-width="2.5"></path>
                <path d="M31.5,15.25 C34.9517797,15.25 37.75,18.0482203 37.75,21.5 L37.75,25.25 L35.25,25.25 L34,35.25 L29,35.25" id="Path" stroke="#000000" stroke-width="2.5"></path>
                <path d="M14,5.25 C14,8.01142375 16.2385763,10.25 19,10.25 C21.7614237,10.25 24,8.01142375 24,5.25 C24,2.48857625 21.7614237,0.25 19,0.25 C16.2385763,0.25 14,2.48857625 14,5.25 Z" id="Path" stroke="#000000" stroke-width="2.5"></path>
                <path d="M27.75,21.5 C27.75,16.6675084 23.8324916,12.75 19,12.75 C14.1675084,12.75 10.25,16.6675084 10.25,21.5 L10.25,25.25 L14,25.25 L15.25,37.75 L22.75,37.75 L24,25.25 L27.75,25.25 L27.75,21.5 Z" id="Path" stroke="#000000" stroke-width="2.5"></path>
            </g>
        </g>
    </g>
</svg>
