<?xml version="1.0" encoding="UTF-8"?>
<svg width="41px" height="41px" viewBox="0 0 41 41" version="1.1" xmlns="http://www.w3.org/2000/svg">
    <title>F2AD767D-815A-421D-A593-3AF9F69235E4</title>
    <defs>
        <filter id="filter-1">
            <feColorMatrix in="SourceGraphic" type="matrix" values="0 0 0 0 0.219608 0 0 0 0 0.650980 0 0 0 0 0.878431 0 0 0 1.000000 0"></feColorMatrix>
        </filter>
    </defs>
    <g id="Admin-Portal" stroke="none" stroke-width="1" fill="none" fill-rule="evenodd" stroke-linecap="round" stroke-linejoin="round">
        <g id="streamline-icon-single-neutral-actions-view@20x20-copy" transform="translate(-813.000000, -571.000000)" filter="url(#filter-1)">
            <g transform="translate(814.326667, 572.600000)">
                <path d="M4,5.25 C4,8.01142375 6.23857625,10.25 9,10.25 C11.7614237,10.25 14,8.01142375 14,5.25 C14,2.48857625 11.7614237,0.25 9,0.25 C6.23857625,0.25 4,2.48857625 4,5.25 Z" id="Path" stroke="#000000" stroke-width="2.5"></path>
                <path d="M15.1233333,15.25 C12.6070146,12.7848298 8.85779308,12.0689886 5.6102405,13.4336594 C2.36268792,14.7983302 0.250154227,17.9773697 0.25,21.5 L0.25,25.25 L4,25.25 L5.25,37.75 L12.75,37.75 L13.225,33" id="Path" stroke="#000000" stroke-width="2.5"></path>
                <path d="M16.5,25.25 C16.5,30.0824916 20.4175084,34 25.25,34 C30.0824916,34 34,30.0824916 34,25.25 C34,20.4175084 30.0824916,16.5 25.25,16.5 C20.4175084,16.5 16.5,20.4175084 16.5,25.25 Z" id="Path" stroke="#000000" stroke-width="2.5"></path>
                <line x1="37.75" y1="37.75" x2="31.4366667" y2="31.4366667" id="Path" stroke="#000000" stroke-width="2.5"></line>
            </g>
        </g>
    </g>
</svg>
