<?xml version="1.0" encoding="UTF-8"?>
<svg width="20px" height="22px" viewBox="0 0 20 22" version="1.1" xmlns="http://www.w3.org/2000/svg">
    <title>F8FFAF8C-58FE-4E6F-95C1-F4D418D753DF</title>
    <defs>
        <filter id="filter-1">
            <feColorMatrix in="SourceGraphic" type="matrix" values="0 0 0 0 0.219608 0 0 0 0 0.650980 0 0 0 0 0.878431 0 0 0 1.000000 0"></feColorMatrix>
        </filter>
    </defs>
    <g id="Admin-Portal" stroke="none" stroke-width="1" fill="none" fill-rule="evenodd" stroke-linecap="round" stroke-linejoin="round">
        <g id="streamline-icon-team-meeting@20x20" transform="translate(-31.000000, -405.000000)" filter="url(#filter-1)">
            <g transform="translate(31.000000, 405.400000)">
                <path d="M1.56166667,14.6875 C1.56166667,15.8956229 2.54104378,16.875 3.74916667,16.875 C4.95728956,16.875 5.93666667,15.8956229 5.93666667,14.6875 C5.93666667,13.4793771 4.95728956,12.5 3.74916667,12.5 C2.54104378,12.5 1.56166667,13.4793771 1.56166667,14.6875 L1.56166667,14.6875 Z" id="Path" stroke="#000000" stroke-width="1.25"></path>
                <path d="M6.87416667,19.375 C6.25864674,18.2209001 5.0571465,17.5 3.74916667,17.5 C2.44118683,17.5 1.23968659,18.2209001 0.624166667,19.375" id="Path" stroke="#000000" stroke-width="1.25"></path>
                <path d="M14.0616667,14.6875 C14.0616667,15.4690185 14.4786018,16.1911714 15.1554166,16.5819306 C15.8322315,16.9726899 16.6661018,16.9726899 17.3429167,16.5819306 C18.0197316,16.1911714 18.4366667,15.4690185 18.4366667,14.6875 C18.4366667,13.9059815 18.0197316,13.1838286 17.3429167,12.7930694 C16.6661018,12.4023101 15.8322315,12.4023101 15.1554166,12.7930694 C14.4786018,13.1838286 14.0616667,13.9059815 14.0616667,14.6875 L14.0616667,14.6875 Z" id="Path" stroke="#000000" stroke-width="1.25"></path>
                <path d="M19.3741667,19.375 C18.7586467,18.2209001 17.5571465,17.5 16.2491667,17.5 C14.9411868,17.5 13.7396866,18.2209001 13.1241667,19.375" id="Path" stroke="#000000" stroke-width="1.25"></path>
                <path d="M7.81166667,2.8125 C7.81166667,3.59401849 8.22860179,4.31617136 8.90541665,4.70693061 C9.58223152,5.09768986 10.4161018,5.09768986 11.0929167,4.70693061 C11.7697315,4.31617136 12.1866667,3.59401849 12.1866667,2.8125 C12.1866667,2.03098151 11.7697315,1.30882864 11.0929167,0.918069391 C10.4161018,0.527310142 9.58223152,0.527310142 8.90541665,0.918069391 C8.22860179,1.30882864 7.81166667,2.03098151 7.81166667,2.8125 L7.81166667,2.8125 Z" id="Path" stroke="#000000" stroke-width="1.25"></path>
                <path d="M12.7066667,6.875 C12.0307536,6.08139012 11.0407704,5.62417224 9.99833333,5.62417224 C8.95589623,5.62417224 7.96591307,6.08139012 7.29,6.875" id="Path" stroke="#000000" stroke-width="1.25"></path>
                <path d="M7.54166667,16.4225 C9.13768049,17.0309858 10.9027007,17.0256409 12.495,16.4075" id="Path" stroke="#000000" stroke-width="1.25"></path>
                <path d="M5.29,5 C3.90715168,6.29514487 3.12272611,8.10535773 3.12333298,10 C3.12333298,10.2108333 3.13583333,10.4166667 3.155,10.625" id="Path" stroke="#000000" stroke-width="1.25"></path>
                <path d="M16.8425,10.625 C16.8608333,10.4183333 16.8741675,10.2083333 16.8741675,10 C16.8750741,8.10529555 16.0905989,6.29496837 14.7075,5" id="Path" stroke="#000000" stroke-width="1.25"></path>
            </g>
        </g>
    </g>
</svg>
