<?xml version="1.0" encoding="UTF-8"?>
<svg width="41px" height="41px" viewBox="0 0 41 41" version="1.1" xmlns="http://www.w3.org/2000/svg">
    <title>AC27DC55-BDAC-4805-ADFD-4C95B2737B83</title>
    <defs>
        <filter id="filter-1">
            <feColorMatrix in="SourceGraphic" type="matrix" values="0 0 0 0 0.219608 0 0 0 0 0.650980 0 0 0 0 0.878431 0 0 0 1.000000 0"></feColorMatrix>
        </filter>
    </defs>
    <g id="Admin-Portal" stroke="none" stroke-width="1" fill="none" fill-rule="evenodd" stroke-linecap="round" stroke-linejoin="round">
        <g id="streamline-icon-team-meeting@20x20-copy" transform="translate(-438.000000, -571.000000)" filter="url(#filter-1)">
            <g transform="translate(439.166667, 572.600000)">
                <path d="M2.12333333,28.375 C2.12333333,30.7912458 4.08208755,32.75 6.49833333,32.75 C8.91457911,32.75 10.8733333,30.7912458 10.8733333,28.375 C10.8733333,25.9587542 8.91457911,24 6.49833333,24 C4.08208755,24 2.12333333,25.9587542 2.12333333,28.375 L2.12333333,28.375 Z" id="Path" stroke="#000000" stroke-width="2.5"></path>
                <path d="M12.7483333,37.75 C11.5172935,35.4418003 9.114293,34 6.49833333,34 C3.88237366,34 1.47937318,35.4418003 0.248333333,37.75" id="Path" stroke="#000000" stroke-width="2.5"></path>
                <path d="M27.1233333,28.375 C27.1233333,29.938037 27.9572036,31.3823427 29.3108333,32.1638613 C30.664463,32.9453798 32.3322036,32.9453798 33.6858334,32.1638613 C35.0394631,31.3823427 35.8733333,29.938037 35.8733333,28.375 C35.8733333,26.811963 35.0394631,25.3676573 33.6858334,24.5861387 C32.3322036,23.8046202 30.664463,23.8046202 29.3108333,24.5861387 C27.9572036,25.3676573 27.1233333,26.811963 27.1233333,28.375 L27.1233333,28.375 Z" id="Path" stroke="#000000" stroke-width="2.5"></path>
                <path d="M37.7483333,37.75 C36.5172935,35.4418003 34.114293,34 31.4983333,34 C28.8823737,34 26.4793732,35.4418003 25.2483333,37.75" id="Path" stroke="#000000" stroke-width="2.5"></path>
                <path d="M14.6233333,4.625 C14.6233333,6.18803698 15.4572036,7.63234272 16.8108333,8.41386122 C18.164463,9.19537972 19.8322036,9.19537972 21.1858334,8.41386122 C22.5394631,7.63234272 23.3733333,6.18803698 23.3733333,4.625 C23.3733333,3.06196302 22.5394631,1.61765728 21.1858334,0.836138782 C19.8322036,0.0546202832 18.164463,0.0546202832 16.8108333,0.836138782 C15.4572036,1.61765728 14.6233333,3.06196302 14.6233333,4.625 L14.6233333,4.625 Z" id="Path" stroke="#000000" stroke-width="2.5"></path>
                <path d="M24.4133333,12.75 C23.0615072,11.1627802 21.0815409,10.2483445 18.9966667,10.2483445 C16.9117925,10.2483445 14.9318261,11.1627802 13.58,12.75" id="Path" stroke="#000000" stroke-width="2.5"></path>
                <path d="M14.0833333,31.845 C17.275361,33.0619716 20.8054015,33.0512817 23.99,31.815" id="Path" stroke="#000000" stroke-width="2.5"></path>
                <path d="M9.58,9 C6.81430336,11.5902897 5.24545222,15.2107155 5.24666596,19 C5.24666596,19.4216667 5.27166667,19.8333333 5.31,20.25" id="Path" stroke="#000000" stroke-width="2.5"></path>
                <path d="M32.685,20.25 C32.7216667,19.8366667 32.7483349,19.4166667 32.7483349,19 C32.7501481,15.2105911 31.1811979,11.5899367 28.415,9" id="Path" stroke="#000000" stroke-width="2.5"></path>
            </g>
        </g>
    </g>
</svg>
