<?xml version="1.0" encoding="UTF-8"?>
<svg width="20px" height="21px" viewBox="0 0 20 21" version="1.1" xmlns="http://www.w3.org/2000/svg">
    <title>E4A48376-8E98-4025-8142-3F7C479B5733</title>
    <defs>
        <filter id="filter-1">
            <feColorMatrix in="SourceGraphic" type="matrix" values="0 0 0 0 1.000000 0 0 0 0 1.000000 0 0 0 0 1.000000 0 0 0 1.000000 0"></feColorMatrix>
        </filter>
    </defs>
    <g id="Admin-Portal" stroke="none" stroke-width="1" fill="none" fill-rule="evenodd" stroke-linecap="round" stroke-linejoin="round">
        <g id="streamline-icon-real-estate-neighbourhood@20x20" transform="translate(-31.000000, -581.000000)" filter="url(#filter-1)">
            <g transform="translate(31.000000, 582.300000)">
                <path d="M12.5,2.125 L12.5,6.29166667 C12.5,6.63684464 12.220178,6.91666667 11.875,6.91666667 L8.125,6.91666667 C7.77982203,6.91666667 7.5,6.63684464 7.5,6.29166667 L7.5,2.125" id="Path" stroke="#000000" stroke-width="1.25"></path>
                <polyline id="Path" stroke="#000000" stroke-width="1.25" points="6.25 3.16666667 10 0.0416666667 13.75 3.16666667"></polyline>
                <path d="M18.125,13.375 L18.125,17.5416667 C18.125,17.8868446 17.845178,18.1666667 17.5,18.1666667 L13.75,18.1666667 C13.404822,18.1666667 13.125,17.8868446 13.125,17.5416667 L13.125,13.375" id="Path" stroke="#000000" stroke-width="1.25"></path>
                <polyline id="Path" stroke="#000000" stroke-width="1.25" points="11.875 14.4166667 15.625 11.2916667 19.375 14.4166667"></polyline>
                <path d="M6.875,13.375 L6.875,17.5416667 C6.875,17.8868446 6.59517797,18.1666667 6.25,18.1666667 L2.5,18.1666667 C2.15482203,18.1666667 1.875,17.8868446 1.875,17.5416667 L1.875,13.375" id="Path" stroke="#000000" stroke-width="1.25"></path>
                <polyline id="Path" stroke="#000000" stroke-width="1.25" points="0.625 14.4166667 4.375 11.2916667 8.125 14.4166667"></polyline>
            </g>
        </g>
    </g>
</svg>
