<?xml version="1.0" encoding="UTF-8"?>
<svg width="41px" height="41px" viewBox="0 0 41 41" version="1.1" xmlns="http://www.w3.org/2000/svg">
    <title>DD97EA11-F2C3-4332-B5EB-D79A78733849</title>
    <defs>
        <filter id="filter-1">
            <feColorMatrix in="SourceGraphic" type="matrix" values="0 0 0 0 0.219608 0 0 0 0 0.650980 0 0 0 0 0.878431 0 0 0 1.000000 0"></feColorMatrix>
        </filter>
    </defs>
    <g id="Admin-Portal" stroke="none" stroke-width="1" fill="none" fill-rule="evenodd" stroke-linecap="round" stroke-linejoin="round">
        <g id="streamline-icon-task-checklist-check@20x20-copy" transform="translate(-999.000000, -423.000000)" filter="url(#filter-1)">
            <g transform="translate(1000.916667, 424.500000)">
                <path d="M32.7533333,14 L32.7533333,7.74833333 C32.7533333,6.36762146 31.6340452,5.24833333 30.2533333,5.24833333 L23.5866667,5.24833333" id="Path" stroke="#000000" stroke-width="2.5"></path>
                <path d="M9.42,5.24833333 L2.75333333,5.24833333 C1.37262146,5.24833333 0.253333333,6.36762146 0.253333333,7.74833333 L0.253333333,35.2483333 C0.253333333,36.6290452 1.37262146,37.7483333 2.75333333,37.7483333 L16.5,37.7483333" id="Path" stroke="#000000" stroke-width="2.5"></path>
                <path d="M23.0383333,6.89333333 C22.8679524,7.40325453 22.3909656,7.74740959 21.8533333,7.74832964 L11.155,7.74832964 C10.6167542,7.7481255 10.1389092,7.40383551 9.96833333,6.89333333 L8.30166667,1.89333333 C8.17387657,1.51201755 8.23761749,1.09249026 8.4728969,0.766337483 C8.70817631,0.440184706 9.0861753,0.247356243 9.48833333,0.248329638 L23.52,0.248329638 C23.9218643,0.247893811 24.2993658,0.440945116 24.5342555,0.767015564 C24.7691451,1.09308601 24.8326955,1.51229666 24.705,1.89333333 L23.0383333,6.89333333 Z" id="Path" stroke="#000000" stroke-width="2.5"></path>
                <path d="M12.7533333,32.7483333 L6.5,32.7483333 C5.80964406,32.7483333 5.25,32.1886893 5.25,31.4983333 L5.25,10.2483333" id="Path" stroke="#000000" stroke-width="2.5"></path>
                <line x1="27.7533333" y1="10.2483333" x2="27.7533333" y2="12.7483333" id="Path" stroke="#000000" stroke-width="2.5"></line>
                <path d="M17.75,27.7483333 C17.75,33.2711808 22.2271525,37.7483333 27.75,37.7483333 C33.2728475,37.7483333 37.75,33.2711808 37.75,27.7483333 C37.75,22.2254858 33.2728475,17.7483333 27.75,17.7483333 C22.2271525,17.7483333 17.75,22.2254858 17.75,27.7483333 Z" id="Path" stroke="#000000" stroke-width="2.5"></path>
                <path d="M32.2066667,24.8333333 L27.365,31.29 C27.1471709,31.5797067 26.8144517,31.7607597 26.452892,31.7863343 C26.0913324,31.8119088 25.7364403,31.6794931 25.48,31.4233333 L22.98,28.9233333" id="Path" stroke="#000000" stroke-width="2.5"></path>
                <line x1="10.2533333" y1="15.2483333" x2="17.7533333" y2="15.2483333" id="Path" stroke="#000000" stroke-width="2.5"></line>
                <line x1="10.2533333" y1="22.7483333" x2="12.7533333" y2="22.7483333" id="Path" stroke="#000000" stroke-width="2.5"></line>
            </g>
        </g>
    </g>
</svg>
