<?xml version="1.0" encoding="UTF-8"?>
<svg width="20px" height="21px" viewBox="0 0 20 21" version="1.1" xmlns="http://www.w3.org/2000/svg">
    <title>6E3ABB88-0C58-414B-B627-386B585BCE24</title>
    <defs>
        <filter id="filter-1">
            <feColorMatrix in="SourceGraphic" type="matrix" values="0 0 0 0 0.219608 0 0 0 0 0.650980 0 0 0 0 0.878431 0 0 0 1.000000 0"></feColorMatrix>
        </filter>
    </defs>
    <g id="Admin-Portal" stroke="none" stroke-width="1" fill="none" fill-rule="evenodd" stroke-linecap="round" stroke-linejoin="round">
        <g id="streamline-icon-advertising-megaphone@20x20" transform="translate(-31.000000, -362.000000)" filter="url(#filter-1)">
            <g transform="translate(31.000000, 363.620000)">
                <path d="M8.0525,12.7183333 C7.60184003,12.9590074 7.26545411,13.3690954 7.11755848,13.8581203 C6.96966286,14.3471452 7.02241153,14.874919 7.26416667,15.325 L7.26916667,15.325 C7.77491952,16.2658888 8.94612967,16.6209026 9.88916667,16.1191667 L10.18,15.9616667 C15.2358333,13.2383333 16.0575,13.5658333 19.1666667,13.3558333 L15.5366667,6.54 C13.4541667,9.27833333 13.3741667,9.8225 8.0525,12.7183333 Z" id="Path" stroke="#000000" stroke-width="1.25"></path>
                <path d="M9.58333333,11.87 L12.075,17.1441667 C12.5765146,18.0845074 13.7450603,18.4407031 14.6858333,17.94" id="Path" stroke="#000000" stroke-width="1.25"></path>
                <line x1="10.8208333" y1="7.54166667" x2="10.8208333" y2="2.985" id="Path" stroke="#000000" stroke-width="1.25"></line>
                <path d="M3.32083333,2.985 L3.32083333,8.79166667 C3.32083333,9.4820226 3.8804774,10.0416667 4.57083333,10.0416667 L8.32083333,10.0416667" id="Path" stroke="#000000" stroke-width="1.25"></path>
                <path d="M13.3208333,5.235 L7.90416667,0.3625 C7.42877204,-0.0653959947 6.70706129,-0.0653959947 6.23166667,0.3625 L0.820833333,5.235" id="Path" stroke="#000000" stroke-width="1.25"></path>
                <line x1="12.0708333" y1="4.11" x2="12.0708333" y2="0.666666667" id="Path" stroke="#000000" stroke-width="1.25"></line>
            </g>
        </g>
    </g>
</svg>
