<?xml version="1.0" encoding="UTF-8"?>
<svg width="20px" height="20px" viewBox="0 0 20 20" version="1.1" xmlns="http://www.w3.org/2000/svg">
    <title>36BFA7B6-FEDD-4A6F-AEFD-688F16162FE9</title>
    <defs>
        <filter id="filter-1">
            <feColorMatrix in="SourceGraphic" type="matrix" values="0 0 0 0 0.219608 0 0 0 0 0.650980 0 0 0 0 0.878431 0 0 0 1.000000 0"></feColorMatrix>
        </filter>
    </defs>
    <g id="Admin-Portal" stroke="none" stroke-width="1" fill="none" fill-rule="evenodd" stroke-linecap="round" stroke-linejoin="round">
        <g id="streamline-icon-seo-search@20x20" transform="translate(-31.000000, -536.000000)" filter="url(#filter-1)">
            <g transform="translate(31.000000, 537.000000)">
                <path d="M13.125,2.85416667 C13.125,4.2924082 14.2909251,5.45833333 15.7291667,5.45833333 C17.1674082,5.45833333 18.3333333,4.2924082 18.3333333,2.85416667 C18.3333333,1.41592513 17.1674082,0.25 15.7291667,0.25 C14.2909251,0.25 13.125,1.41592513 13.125,2.85416667 Z" id="Path" stroke="#000000" stroke-width="1.25"></path>
                <line x1="17.5708333" y1="4.695" x2="19.375" y2="6.5" id="Path" stroke="#000000" stroke-width="1.25"></line>
                <path d="M10.625,5.25 L1.875,5.25 C1.18464406,5.25 0.625,4.69035594 0.625,4 L0.625,2.75 C0.625,2.05964406 1.18464406,1.5 1.875,1.5 L10.625,1.5" id="Path" stroke="#000000" stroke-width="1.25"></path>
                <path d="M2.1875,8.375 C2.36008898,8.375 2.5,8.51491102 2.5,8.6875 C2.5,8.86008898 2.36008898,9 2.1875,9 C2.01491102,9 1.875,8.86008898 1.875,8.6875 C1.875,8.51491102 2.01491102,8.375 2.1875,8.375" id="Path" stroke="#000000" stroke-width="1.25"></path>
                <line x1="5" y1="9" x2="15" y2="9" id="Path" stroke="#000000" stroke-width="1.25"></line>
                <path d="M2.1875,12.75 C2.36008898,12.75 2.5,12.889911 2.5,13.0625 C2.5,13.235089 2.36008898,13.375 2.1875,13.375 C2.01491102,13.375 1.875,13.235089 1.875,13.0625 C1.875,12.889911 2.01491102,12.75 2.1875,12.75" id="Path" stroke="#000000" stroke-width="1.25"></path>
                <line x1="5" y1="13.375" x2="15" y2="13.375" id="Path" stroke="#000000" stroke-width="1.25"></line>
                <path d="M2.1875,17.125 C2.36008898,17.125 2.5,17.264911 2.5,17.4375 C2.5,17.610089 2.36008898,17.75 2.1875,17.75 C2.01491102,17.75 1.875,17.610089 1.875,17.4375 C1.875,17.264911 2.01491102,17.125 2.1875,17.125" id="Path" stroke="#000000" stroke-width="1.25"></path>
                <line x1="5" y1="17.75" x2="15" y2="17.75" id="Path" stroke="#000000" stroke-width="1.25"></line>
            </g>
        </g>
    </g>
</svg>
